<?xml version="1.0" encoding="UTF-8"?>
<svg width="56px" height="48px" viewBox="0 0 56 48" version="1.1" xmlns="http://www.w3.org/2000/svg" xmlns:xlink="http://www.w3.org/1999/xlink">
    <!-- Generator: Sketch 49.1 (51147) - http://www.bohemiancoding.com/sketch -->
    <title>Fill 21</title>
    <desc>Created with Sketch.</desc>
    <defs></defs>
    <g id="design-desk***" stroke="none" stroke-width="1" fill="none" fill-rule="evenodd">
        <path d="M42.844675,28.6813853 C41.8325538,28.6813853 40.9875321,29.5255411 40.9875321,30.5385281 C40.9875321,31.5515152 41.8308222,32.3948052 42.844675,32.3948052 C43.8567962,32.3948052 44.700952,31.5515152 44.700952,30.5385281 C44.7849347,29.5264069 43.9416447,28.6813853 42.844675,28.6813853 Z M45.3754109,23.4510823 C44.3632897,23.4510823 43.518268,24.2952381 43.518268,25.3082251 C43.518268,26.3212121 44.3615581,27.1645022 45.3754109,27.1645022 C46.3875321,27.1645022 47.231688,26.3212121 47.231688,25.3082251 C47.3156706,24.2969697 46.4723806,23.4510823 45.3754109,23.4510823 Z M44.6161035,44.9645022 L43.6039823,44.9645022 C41.1572291,44.9645022 39.2169693,42.9393939 39.2169693,40.5766234 L39.2169693,19.8242424 L49.0031165,19.8242424 L49.0031165,40.4926407 C49.0031165,42.9393939 47.0628568,44.9636364 44.6161035,44.9636364 L44.6161035,44.9645022 Z M53.9788741,7.16969697 L50.5199996,7.16969697 C49.7606923,7.16969697 49.0862334,7.76103896 49.0862334,8.604329 L49.0862334,8.68744589 L49.0862334,9.19393939 L49.0862334,16.9549784 L39.1312551,16.9549784 L39.1312551,9.19393939 L39.1312551,8.77316017 L39.1312551,8.68917749 C39.1312551,7.84675325 38.457662,7.16969697 37.6126403,7.16969697 L34.1537659,7.16969697 C33.3104758,7.16969697 32.6351512,7.84675325 32.6351512,8.68917749 C32.6351512,9.53246753 33.30961,10.2077922 34.1537659,10.2077922 L36.0940256,10.2077922 L36.0940256,40.5766234 C36.0940256,44.6268398 39.3840689,48 43.5174022,48 L44.5295235,48 C48.5788741,48 51.9529001,44.7108225 51.9529001,40.5766234 L51.9529001,10.2077922 L53.892294,10.2077922 C54.7355841,10.2077922 55.4109087,9.53246753 55.4109087,8.68917749 C55.4109087,7.84675325 54.7355841,7.16969697 53.9780083,7.16969697 L53.9788741,7.16969697 Z M22.0905624,44.8796537 L6.90528103,44.8796537 C5.04900398,44.8796537 3.61523774,44.3722944 3.19359272,43.5290043 C2.7719477,42.769697 3.36242389,41.7584416 3.70095203,41.1679654 L7.15982649,36.1064935 L10.7875321,30.4545455 L30.8654542,30.4545455 L33.6481382,34.75671 L33.6481382,29.2753247 L28.0801728,20.6683983 C27.4905624,19.7402597 26.9832031,17.9688312 26.9832031,16.7878788 L26.9832031,3.03722944 L28.9234629,3.03722944 C29.7667529,3.03722944 30.4420776,2.36190476 30.4420776,1.51861472 C30.4420776,0.675324675 29.7676187,0 28.9234629,0 L25.4645884,0 C24.6221641,0 23.9459737,0.675324675 23.9459737,1.51861472 L23.9459737,1.6025974 L23.9459737,16.95671 C23.9459737,18.6441558 24.6221641,21.0060606 25.5485711,22.4398268 L28.8386144,27.5861472 L12.6412118,27.5861472 L15.9312551,22.4398268 C16.8593936,21.0060606 17.5338525,18.6424242 17.5338525,16.95671 L17.5338525,1.68744589 L17.5338525,1.6034632 C17.5338525,0.76017316 16.8593936,0.0848484848 16.0143719,0.0848484848 L12.7243287,0.0848484848 C11.8819044,0.0848484848 11.2057139,0.76017316 11.2057139,1.6034632 C11.2057139,2.44675325 11.8819044,3.12207792 12.7243287,3.12207792 L14.6645884,3.12207792 L14.6645884,16.9584416 C14.6645884,18.0554113 14.1580949,19.9099567 13.5676187,20.8380952 L5.21610354,33.6606061 L1.16675289,39.6502165 C-0.0990479723,41.5064935 -0.351861825,43.447619 0.491428218,45.0493506 C1.50268363,46.9064935 3.78147151,47.9186147 6.81870095,47.9186147 L34.7433763,47.9186147 C35.4169693,47.9186147 36.092294,47.834632 36.6827702,47.7489177 C35.840346,46.9896104 35.1641555,45.9792208 34.657662,44.9662338 L22.087965,44.9662338 L22.0905624,44.8796537 Z M25.2974888,37.8779221 C25.2974888,38.8900433 26.1407789,39.7341991 27.1537659,39.7341991 C28.1667529,39.7341991 29.0100429,38.8909091 29.0100429,37.8779221 C29.0100429,36.8658009 28.1667529,36.0225108 27.1537659,36.0225108 C26.1407789,36.0225108 25.2974888,36.8640693 25.2974888,37.8779221 Z M10.9546317,39.4805195 C10.9546317,40.4926407 11.7979217,41.4207792 12.8117745,41.4207792 C13.8247616,41.4207792 14.6680516,40.5766234 14.6680516,39.4805195 C14.6680516,38.4683983 13.8247616,37.6233766 12.8117745,37.6233766 C11.7979217,37.6233766 10.9546317,38.4666667 10.9546317,39.4805195 Z M19.8126403,35.0095238 C19.8126403,36.0225108 20.6559304,36.8658009 21.6689174,36.8658009 C22.6827702,36.8658009 23.5260603,36.0225108 23.5260603,35.0095238 C23.5260603,33.9974026 22.6827702,33.152381 21.6689174,33.152381 C20.6559304,33.152381 19.8126403,33.995671 19.8126403,35.0095238 Z" id="Fill-21" fill="#0079C8"></path>
    </g>
</svg>