<?xml version="1.0" encoding="UTF-8"?>
<svg width="48px" height="48px" viewBox="0 0 48 48" version="1.1" xmlns="http://www.w3.org/2000/svg" xmlns:xlink="http://www.w3.org/1999/xlink">
    <!-- Generator: Sketch 49.1 (51147) - http://www.bohemiancoding.com/sketch -->
    <title>Clip 751</title>
    <desc>Created with Sketch.</desc>
    <defs>
        <path d="M24,0 C37.2334365,0 48,10.7658204 48,23.999257 C48,37.2334365 37.2334365,47.999257 24,47.999257 C10.7665635,47.999257 0,37.2334365 0,23.999257 C0,10.7658204 10.7665635,0 24,0 Z M24,44.7291641 C35.4300929,44.7291641 44.7299071,35.4293498 44.7299071,23.999257 C44.7299071,12.5699071 35.4300929,3.27009288 24,3.27009288 C12.5699071,3.27009288 3.27083591,12.5699071 3.27083591,23.999257 C3.27083591,35.4293498 12.5699071,44.7291641 24,44.7291641 Z M26.7730031,24.0141176 L35.10613,32.3472446 C35.4850774,32.726935 35.6745511,33.1786997 35.6745511,33.7196285 C35.6745511,34.2590712 35.4850774,34.7256966 35.10613,35.105387 C34.7264396,35.4850774 34.2598142,35.6745511 33.7196285,35.6745511 C33.1794427,35.6745511 32.726935,35.4850774 32.3472446,35.105387 L24.0148607,26.7722601 L15.6817337,35.105387 C15.3020433,35.4850774 14.835418,35.6745511 14.2811146,35.6745511 C13.7401858,35.6745511 13.2735604,35.4850774 12.89387,35.105387 C12.5149226,34.7256966 12.3254489,34.2590712 12.3254489,33.7196285 C12.3254489,33.1786997 12.5149226,32.726935 12.89387,32.3472446 L21.2269969,23.9851393 L12.89387,15.6809907 C12.5149226,15.3013003 12.3254489,14.8346749 12.3254489,14.2796285 C12.3254489,13.7401858 12.5149226,13.2735604 12.89387,12.89387 C13.2735604,12.5141796 13.7260681,12.3247059 14.2811146,12.3247059 C14.8205573,12.3247059 15.2871827,12.5141796 15.6817337,12.89387 L24.0148607,21.2269969 L32.3472446,12.9228483 C32.726935,12.5431579 33.1794427,12.3544272 33.7196285,12.3544272 C34.2598142,12.3544272 34.7264396,12.5431579 35.10613,12.9228483 C35.4850774,13.3025387 35.6745511,13.7543034 35.6745511,14.2944892 C35.6745511,14.8495356 35.4850774,15.3013003 35.10613,15.6809907 L26.7730031,24.0141176 Z" id="path-1"></path>
    </defs>
    <g id="design-desk***" stroke="none" stroke-width="1" fill="none" fill-rule="evenodd">
        <g id="rechazado">
            <mask id="mask-2" fill="white">
                <use xlink:href="#path-1"></use>
            </mask>
            <use id="Clip-751" fill="#0079C8" xlink:href="#path-1"></use>
        </g>
    </g>
</svg>