<?xml version="1.0" encoding="UTF-8"?>
<svg width="48px" height="48px" viewBox="0 0 48 48" version="1.1" xmlns="http://www.w3.org/2000/svg" xmlns:xlink="http://www.w3.org/1999/xlink">
    <!-- Generator: Sketch 49.1 (51147) - http://www.bohemiancoding.com/sketch -->
    <title>Fill 153</title>
    <desc>Created with Sketch.</desc>
    <defs></defs>
    <g id="**final_Prototipo" stroke="none" stroke-width="1" fill="none" fill-rule="evenodd">
        <g id="BEM2_000" transform="translate(-144.000000, -491.000000)" fill="#0079C8">
            <path d="M177.106395,503.978777 L179.164631,505.606047 C179.194353,505.635768 179.224075,505.672921 179.246366,505.718246 C179.276088,505.762086 179.290949,505.807412 179.290949,505.844564 C179.298379,505.904008 179.298379,505.963451 179.290949,506.014722 C179.276088,506.068221 179.253796,506.111318 179.224075,506.156643 L165.745228,524.561139 C165.715506,524.606464 165.670924,524.636186 165.626341,524.665908 L165.470301,524.717178 L165.44058,524.717178 C165.388566,524.717178 165.336553,524.70306 165.29197,524.687456 C165.247388,524.657735 165.210235,524.636186 165.187944,524.606464 L157.854084,517.004365 C157.824363,516.960526 157.802071,516.923373 157.77978,516.87136 C157.757489,516.834208 157.750058,516.788882 157.750058,516.745042 C157.750058,516.685599 157.757489,516.632843 157.77978,516.589003 C157.802071,516.543677 157.824363,516.506525 157.854084,516.476803 L159.674546,514.567176 C159.748851,514.492871 159.838016,514.456462 159.942042,514.456462 C160.046069,514.456462 160.135234,514.492871 160.209539,514.567176 L165.150792,519.687503 L176.578832,504.067942 C176.630846,503.978777 176.712581,503.927507 176.816607,503.911903 C176.920633,503.904472 177.017229,503.920076 177.106395,503.978777 M168.000372,535.729856 C156.569359,535.729856 147.270144,526.430641 147.270144,515.000372 C147.270144,503.570102 156.569359,494.27163 168.000372,494.27163 C179.430641,494.27163 188.7306,503.570102 188.7306,515.000372 C188.7306,526.430641 179.430641,535.729856 168.000372,535.729856 M144,515.000372 C144,528.235499 154.76673,539.000743 168.000372,539.000743 C181.234013,539.000743 192,528.235499 192,515.000372 C192,501.765987 181.234013,491 168.000372,491 C154.76673,491 144,501.765987 144,515.000372 Z" id="Fill-153"></path>
        </g>
    </g>
</svg>