<?xml version="1.0" encoding="utf-8"?>
<!-- Generator: Adobe Illustrator 24.1.0, SVG Export Plug-In . SVG Version: 6.00 Build 0)  -->
<svg version="1.1" id="Capa_1" xmlns="http://www.w3.org/2000/svg" xmlns:xlink="http://www.w3.org/1999/xlink" x="0px" y="0px"
	 viewBox="0 0 61 56" style="enable-background:new 0 0 61 56;" xml:space="preserve">
<style type="text/css">
	.st0{fill-rule:evenodd;clip-rule:evenodd;fill:#2E79BD;}
</style>
<path class="st0" d="M21.7,31.6H24v-2.1h-2.3V31.6z M35.7,8.4c0.6,0,1.1,0.5,1.1,1.1v19c0,0.6-0.5,1.1-1.1,1.1h-3.3v12.6
	c0,3.5,3.9,6.3,7.3,6.3c3.5,0,6.5-2.8,6.5-6.3v-4.2H45c-0.3,0-0.7-0.4-0.8-0.9l0-0.2l-0.1-0.2l-2.9-8.1c-0.8-1.9,0-4.2,1.8-5
	c0.4-0.2,0.8-0.3,1-0.3h6.6c0.2,0,0.5,0.1,1,0.3c1.7,0.9,2.5,3.1,1.7,5l-3.2,8.1L50,36.8l0,0.2c-0.1,0.6-0.6,0.9-0.8,0.9h-0.8v4.2
	c0,4.6-4,8.4-8.6,8.4c-4.6,0-9.4-3.8-9.4-8.4V29.5h-4.1h0v2.1h2v2.1h-2h-6.5h-2v-2.1h2v-2.1h-9.3c-0.6,0-1.1-0.5-1.1-1.1v-19
	c0-0.6,0.5-1.1,1.1-1.1H35.7z M11.4,27.4h12.6h2.1h8.5V10.5H11.4V27.4z M44.9,25.3c0.1,0,0.1,0,0.1,0C44.9,25.3,44.8,25.3,44.9,25.3
	c-2,0.4-1.7,2.4-1.2,3.8l2.2,5.8l0.1,0.1l0,0.1c0.1,0.4,0.4,0.6,0.6,0.6h1.4c0.2,0,0.5-0.3,0.6-0.6l0-0.1l0.1-0.1l2.2-5.8
	c0.5-1.4,0.9-3.8-1.7-3.8h-0.1c0.1,0-0.1-0.1-0.1-0.1c0,0,0,0,0.1,0.1H44.9z M50.5,19.1c-1.6-1.6-4.4-1.6-6,0l1.5,1.5
	c0.8-0.8,2.2-0.8,3,0L50.5,19.1z M53.1,16.5c-3.1-3.1-8.1-3.1-11.2,0l1.5,1.5c2.3-2.3,5.9-2.3,8.2,0L53.1,16.5z M55.7,13.9
	c-4.5-4.5-11.9-4.5-16.4,0l1.5,1.5c3.7-3.7,9.7-3.7,13.4,0L55.7,13.9z M26.6,15.3l2.8,4.9c-2.1,0.9-4.4,1.4-6.7,1.4
	c-2.2,0-4.4-0.4-6.4-1.2l2.9-4.9c1.1,0.4,2.3,0.6,3.5,0.6C24.1,16,25.4,15.8,26.6,15.3 M27.5,12.6c-1.4,0.8-3,1.3-4.7,1.3
	c-1.6,0-3.1-0.4-4.4-1.1l-4.9,8.5c2.8,1.5,6,2.4,9.4,2.4c3.5,0,6.8-1,9.6-2.6L27.5,12.6z"/>
</svg>
