<?xml version="1.0" encoding="UTF-8"?>
<svg width="55px" height="63px" viewBox="0 0 55 63" version="1.1" xmlns="http://www.w3.org/2000/svg" xmlns:xlink="http://www.w3.org/1999/xlink">
    <!-- Generator: Sketch 47.1 (45422) - http://www.bohemiancoding.com/sketch -->
    <title>icon_general-medicine</title>
    <desc>Created with Sketch.</desc>
    <defs></defs>
    <g id="Page-1" stroke="none" stroke-width="1" fill="none" fill-rule="evenodd">
        <g id="icon_general-medicine" fill-rule="nonzero" fill="#FFFFFF">
            <path d="M42.1195258,20.6286343 L42.1195258,9.65493396 C42.1195258,6.11822932 39.2516647,3.24453528 35.7091271,3.24453528 L31.777727,3.24453528 L31.777727,1.84074159 C31.8516109,0.899694289 31.1458255,0.07919436 30.2047782,0.00531048 C29.2637308,-0.0685733689 28.443231,0.637212084 28.3693471,1.57825939 C28.363514,1.66380916 28.363514,1.75519185 28.3693471,1.83879727 L28.3693471,7.73200879 C28.2954632,8.67305609 29.0012486,9.49355599 29.9422959,9.56743987 C30.8833432,9.64132375 31.7038431,8.9355383 31.777727,7.994491 C31.78356,7.90894123 31.78356,7.81755853 31.777727,7.73395311 L31.777727,6.6218063 L35.7091271,6.6218063 C37.3870691,6.6218063 38.7403106,7.97699218 38.7403106,9.65298964 L38.7403106,20.6325229 C38.5886542,22.9968071 37.4648416,25.1958246 35.6294104,26.696834 L24.3465644,34.6801815 L13.0578854,26.6910009 C11.2224543,25.1899916 10.0928086,22.9909741 9.94698519,20.62669 L9.94698519,9.65298964 C9.94698519,7.97699218 11.3021711,6.6218063 12.9781685,6.6218063 L15.748814,6.6218063 L15.748814,7.73395311 C15.6768745,8.67500041 16.3807156,9.49550031 17.3217629,9.56938419 C18.2628102,9.64326807 19.0833101,8.93748259 19.157194,7.99643532 C19.1630269,7.91088555 19.1630269,7.81950285 19.157194,7.7358974 L19.157194,1.84268591 C19.2291336,0.901638609 18.5252924,0.08113868 17.5842451,0.0072548 C16.6431978,-0.06662908 15.8226979,0.639156404 15.748814,1.58020371 C15.7429811,1.66575344 15.7429811,1.75713614 15.748814,1.84074159 L15.748814,3.20759336 L12.9470595,3.20759336 C9.41035492,3.18426161 6.51916207,6.03851251 6.49971893,9.57521712 C6.49971893,9.60049319 6.49971893,9.62965789 6.49971893,9.65493396 L6.49971893,20.6344672 C6.67081847,24.091455 8.33515004,27.3054037 11.0571877,29.4383146 L22.851388,37.7755271 L22.851388,51.986508 C22.6569566,54.039702 21.6361926,55.9295741 20.0204688,57.224486 C18.0703233,58.6710547 15.1907963,59.1260239 11.9340727,58.5310644 C6.8788599,57.6016828 3.02717663,54.1330291 3.61630335,50.9735212 C4.04794074,49.3577974 5.25730318,48.0570521 6.84191797,47.5048675 C9.1012092,46.5988177 11.5743748,46.3752218 13.9561578,46.8496342 C15.6632642,47.135448 17.2556563,47.8820642 18.5739002,49.0000439 C19.0113706,49.3655745 19.443008,49.7058293 19.8688124,50.0091421 L19.8688124,45.7141555 C17.9847735,44.4328534 15.8168649,43.6298523 13.5497965,43.3809805 C10.7674851,42.974619 7.92295576,43.3207068 5.32340981,44.3900788 C2.68692194,45.3680677 0.730943453,47.6156934 0.116540667,50.363007 C-0.824506636,55.5154354 4.03044192,60.5823139 11.1757908,61.8947249 C12.2937705,62.106655 13.4234161,62.2174809 14.560839,62.2174809 C17.2342688,62.2913648 19.8532579,61.5000294 22.0406097,59.9640225 C24.1482444,58.3541317 25.58898,56.0209568 26.0808912,53.4136335 C26.1528307,53.0675457 26.2033828,52.7758989 26.2325476,52.5445256 C26.2617124,52.3131526 26.2325476,52.0098398 26.2811553,51.9067911 L26.2811553,37.4333282 L37.5815001,29.4363704 C40.3035379,27.2976265 41.9562036,24.0836778 42.1195258,20.6325229 L42.1195258,20.6286343 Z M44.8473965,31.6995504 C39.4519291,31.6878844 35.0655598,36.0567548 35.0597268,41.4580553 C35.0538938,43.5248595 35.7032944,45.5352788 36.9184897,47.2054433 C35.6721851,49.0214312 33.7589815,50.2735685 31.5891287,50.6818741 C30.7861276,50.7965886 29.9734052,50.7965886 29.170404,50.6818741 L29.170404,54.127196 C29.5767652,54.127196 29.9792379,54.20108 30.3739333,54.20108 C30.9688932,54.1952472 31.5657969,54.1466392 32.1549237,54.0494236 C35.0597268,53.5633454 37.6651056,51.9767864 39.43443,49.6202796 C43.923848,52.6397972 50.0076021,51.4498777 53.0271196,46.9585156 C56.0466371,42.4671536 54.8567177,36.3853436 50.3653556,33.365826 C48.737966,32.2711782 46.8111523,31.6878844 44.8493407,31.7014945 L44.8473965,31.6995504 Z M44.8473965,47.8742868 C41.3165247,47.8742868 38.4622737,45.0122587 38.4622737,41.4891643 C38.4622737,37.9582924 41.3243021,35.1040418 44.8473965,35.1040418 C48.3782681,35.1040418 51.232519,37.9660699 51.232519,41.4891643 C51.238352,45.0200358 48.3821567,47.8820642 44.8532292,47.8878969 C44.8473965,47.8878969 44.8473965,47.8878969 44.8415635,47.8878969 L44.8415635,47.8762312 L44.8473965,47.8742868 Z M44.8590623,38.570751 C46.4747861,38.570751 47.7813641,39.877329 47.7813641,41.4930528 C47.7813641,43.1087767 46.4689531,44.4153547 44.8590623,44.4153547 C43.2491715,44.4153547 41.9367604,43.1087767 41.9367604,41.4930528 C41.9367604,39.877329 43.2433384,38.570751 44.8590623,38.570751 Z" id="path-1"></path>
        </g>
    </g>
</svg>