<?xml version="1.0" encoding="UTF-8"?>
<svg width="47px" height="37px" viewBox="0 0 47 37" version="1.1" xmlns="http://www.w3.org/2000/svg" xmlns:xlink="http://www.w3.org/1999/xlink">
    <!-- Generator: Sketch 49.1 (51147) - http://www.bohemiancoding.com/sketch -->
    <title>Page 1</title>
    <desc>Created with Sketch.</desc>
    <defs>
        <polygon id="path-1" points="46.6337761 18.3664213 46.6337761 7.28652751e-05 0 7.28652751e-05 0 18.3664213 0 36.7327696 46.6337761 36.7327696 46.6337761 18.3664213"></polygon>
    </defs>
    <g id="design-desk***" stroke="none" stroke-width="1" fill="none" fill-rule="evenodd">
        <g id="Page-1">
            <mask id="mask-2" fill="white">
                <use xlink:href="#path-1"></use>
            </mask>
            <g id="Clip-2"></g>
            <path d="M43.5668767,29.5424972 L43.5668767,17.3769108 C43.5668767,13.735833 40.8205844,10.9902694 37.1795066,10.9902694 L35.6449639,10.9902694 L35.6449639,9.45572676 C35.6449639,5.81464896 32.8994004,3.06835674 29.2583226,3.06835674 L28.3715522,3.06835674 L3.07054269,3.06981404 L3.07054269,23.9231271 L15.5683947,12.6559696 L25.5946565,23.4699051 L33.5274991,19.5038482 L43.5668767,29.5424972 Z M3.06908539,27.8716964 L3.06908539,33.6644858 L43.2054649,33.6644858 L32.7128653,23.1718861 L24.800425,27.1277419 L15.2251992,16.9535636 L3.06908539,27.8716964 Z M3.51502087,36.7328425 C1.57680455,36.7328425 0,35.156038 0,33.2178216 L0,3.51429222 C0,1.57680455 1.57680455,0 3.51502087,0 L29.2583226,0 C33.7708691,0 37.753685,3.33140038 38.5231423,7.74849336 L38.5770626,8.05744213 L38.8860114,8.11063378 C43.3031044,8.88009108 46.6337761,12.862907 46.6337761,17.3754535 L46.6337761,33.2178216 C46.6337761,35.156038 45.0577002,36.7328425 43.1194839,36.7328425 L3.51502087,36.7328425 Z" id="Fill-1" fill="#0079C8" mask="url(#mask-2)"></path>
        </g>
    </g>
</svg>